# xmcd
#
# Track frame offsets: 
#        150
#        12087
#        24442
#        39040
#        50152
#        63432
#        76317
#        91970
#        106535
#        123250
#        144050
#        157365
#        170967
#        184090
#
# Disc length: 2596 seconds
#
# Revision: 2
# Processed by: cddbd v1.5.1PL2 Copyright (c) Steve Scherf et al.
# Submitted via: ExactAudioCopy v0.95b3
#
DISCID=ab0a220e
DTITLE=Steeplejack - Kitchen Radio
DYEAR=1996
DGENRE=Alternative
TTITLE0=Valentine (Sober All Day)
TTITLE1=Five Feet Nine and Rising
TTITLE2=Panning for Gold
TTITLE3=Sad, Sad, Sad
TTITLE4=Stain
TTITLE5=Waiting for the Crash
TTITLE6=Don't Break No Hearts
TTITLE7=Secret
TTITLE8=Albert Lea
TTITLE9=Blackened Blues
TTITLE10=Wrecking Ball
TTITLE11=Caroline
TTITLE12=Kitchen Radio
TTITLE13=We'll See What a Little Lie Can Do
EXTD=
EXTT0=
EXTT1=
EXTT2=
EXTT3=
EXTT4=
EXTT5=
EXTT6=
EXTT7=
EXTT8=
EXTT9=
EXTT10=
EXTT11=
EXTT12=
EXTT13=
PLAYORDER=
